<?xml version="1.0" encoding="utf-8"?>
<!-- Generator: Adobe Illustrator 23.1.0, SVG Export Plug-In . SVG Version: 6.00 Build 0)  -->
<svg version="1.1" id="Layer_1" focusable="false" xmlns="http://www.w3.org/2000/svg" xmlns:xlink="http://www.w3.org/1999/xlink"
	 x="0px" y="0px" viewBox="0 0 643.6 643.6" style="enable-background:new 0 0 643.6 643.6;" xml:space="preserve">
<style type="text/css">
	.st0{fill:#838383;}
</style>
<path class="st0" d="M588,493.3l-46.7-36.1c13.1-1.2,24.8-11.6,24.8-26.4v-218c0-21.6-24.7-34.3-42.8-21.9l-93,64.1v116.4l-27.1-21
	v-151c0-22.4-18.2-40.6-40.6-40.6H155.4l-66.5-51.4c-5.9-4.6-14.4-3.6-19.1,2.4l-16.6,21.4c-4.6,5.9-3.6,14.4,2.4,19l31,23.9
	L403.2,419l151.4,117.1c5.9,4.6,14.4,3.6,19.1-2.4l16.6-21.5C595.1,506.4,594,497.9,588,493.3L588,493.3z M77.4,444.2
	c0,22.4,18.2,40.6,40.6,40.6h244.7c9.5,0,18.2-3.4,25.1-8.9L77.4,235.9V444.2z"/>
</svg>
